<svg width="58" height="59" viewBox="0 0 58 59" fill="none" xmlns="http://www.w3.org/2000/svg">
<g opacity="0.5" filter="url(#filter0_d_155_28643)">
<circle cx="29" cy="25.5" r="24" fill="#C0EFB0"/>
<circle cx="29" cy="25.5" r="24" stroke="#446832" stroke-width="2"/>
</g>
<path d="M44.0638 22.3664H42.775V22.3H28.375V28.7H37.4174C36.0982 32.4256 32.5534 35.1 28.375 35.1C23.0734 35.1 18.775 30.8016 18.775 25.5C18.775 20.1984 23.0734 15.9 28.375 15.9C30.8222 15.9 33.0486 16.8232 34.7438 18.3312L39.2694 13.8056C36.4118 11.1424 32.5894 9.5 28.375 9.5C19.539 9.5 12.375 16.664 12.375 25.5C12.375 34.336 19.539 41.5 28.375 41.5C37.211 41.5 44.375 34.336 44.375 25.5C44.375 24.4272 44.2646 23.38 44.0638 22.3664Z" fill="#FFC107"/>
<path d="M14.2198 18.0528L19.4766 21.908C20.899 18.3864 24.3438 15.9 28.375 15.9C30.8222 15.9 33.0486 16.8232 34.7438 18.3312L39.2694 13.8056C36.4118 11.1424 32.5894 9.5 28.375 9.5C22.2294 9.5 16.8998 12.9696 14.2198 18.0528Z" fill="#FF3D00"/>
<path d="M28.375 41.5C32.5078 41.5 36.263 39.9184 39.1022 37.3464L34.1502 33.156C32.5438 34.3728 30.547 35.1 28.375 35.1C24.2134 35.1 20.6798 32.4464 19.3486 28.7432L14.131 32.7632C16.779 37.9448 22.1566 41.5 28.375 41.5Z" fill="#4CAF50"/>
<path d="M44.0638 22.3664H42.775V22.3H28.375V28.7H37.4174C36.7838 30.4896 35.6326 32.0328 34.1478 33.1568C34.1486 33.156 34.1494 33.1568 34.1502 33.156L39.1022 37.3464C38.7518 37.6648 44.375 33.5 44.375 25.5C44.375 24.4272 44.2646 23.38 44.0638 22.3664Z" fill="#1976D2"/>
<defs>
<filter id="filter0_d_155_28643" x="0" y="0.5" width="58" height="58" filterUnits="userSpaceOnUse" color-interpolation-filters="sRGB">
<feFlood flood-opacity="0" result="BackgroundImageFix"/>
<feColorMatrix in="SourceAlpha" type="matrix" values="0 0 0 0 0 0 0 0 0 0 0 0 0 0 0 0 0 0 127 0" result="hardAlpha"/>
<feOffset dy="4"/>
<feGaussianBlur stdDeviation="2"/>
<feComposite in2="hardAlpha" operator="out"/>
<feColorMatrix type="matrix" values="0 0 0 0 0 0 0 0 0 0 0 0 0 0 0 0 0 0 0.25 0"/>
<feBlend mode="normal" in2="BackgroundImageFix" result="effect1_dropShadow_155_28643"/>
<feBlend mode="normal" in="SourceGraphic" in2="effect1_dropShadow_155_28643" result="shape"/>
</filter>
</defs>
</svg>
