<svg width="155" height="155" viewBox="0 0 155 155" fill="none" xmlns="http://www.w3.org/2000/svg">
<g id="Logo">
<path id="Vector" d="M72.1993 76.7137C74.0964 74.9312 73.3408 71.9055 71.7456 69.855H54.2031C54.2031 79.3665 59.9058 87.5411 68.0756 91.161C66.6709 83.0445 70.6202 78.1991 72.1993 76.7137Z" fill="#FFAF2B"/>
<g id="Clip path group">
<mask id="mask0_387_2065" style="mask-type:luminance" maskUnits="userSpaceOnUse" x="69" y="69" width="32" height="25">
<g id="4a4f9bebda">
<path id="Vector_2" d="M69.3771 69.8533H100.832V93.1517H69.3771V69.8533Z" fill="white"/>
</g>
</mask>
<g mask="url(#mask0_387_2065)">
<g id="Group">
<path id="Vector_3" d="M89.9272 69.8547C88.3271 72.325 85.4871 75.5865 80.9646 77.2673C74.2415 79.7683 67.3537 81.3231 69.9338 91.8873C72.3056 92.7027 74.8502 93.1516 77.4981 93.1516C90.3647 93.1516 100.795 82.7214 100.795 69.8547H89.9272Z" fill="#FFAF2B"/>
</g>
</g>
</g>
<g id="Clip path group_2">
<mask id="mask1_387_2065" style="mask-type:luminance" maskUnits="userSpaceOnUse" x="62" y="42" width="17" height="27">
<g id="2c59974dd8">
<path id="Vector_4" d="M62.8267 42.6572H78.9467V68.1999H62.8267V42.6572Z" fill="white"/>
</g>
</mask>
<g mask="url(#mask1_387_2065)">
<g id="Group_2">
<path id="Vector_5" d="M73.3453 61.0797C71.8808 58.6885 70.5972 56.0551 70.3841 53.911C70.3841 53.911 72.0391 56.3538 74.1493 58.9856C75.0858 56.9658 76.5437 54.8507 78.7364 52.7501C76.505 49.1318 72.3184 45.4134 64.6701 42.6589C64.6701 42.6589 60.5658 52.3045 64.7072 59.7558C66.2572 63.2126 69.0779 65.867 72.7995 67.8916C72.538 66.0284 72.5477 63.6727 73.3453 61.0797Z" fill="#4BD447"/>
</g>
</g>
</g>
<path id="Vector_6" d="M90.3278 49.5112C69.2591 57.0982 74.4484 71.9975 74.4484 71.9975C78.107 70.3668 84.6138 60.7616 84.6138 60.7616C84.2231 64.7109 80.206 70.3167 78.1022 73.0131C78.0538 73.068 75.4397 75.9726 73.8881 76.8235C70.441 78.719 70.5411 80.6162 70.378 81.4412C70.3732 81.4671 70.3683 81.4864 70.3651 81.5042C70.525 81.0634 71.6358 78.7982 76.7476 77.0786C83.172 74.9183 88.0529 71.5971 90.2907 66.6081C94.4321 59.1551 90.3278 49.5112 90.3278 49.5112Z" fill="#4BD447"/>
<g id="Clip path group_3">
<mask id="mask2_387_2065" style="mask-type:luminance" maskUnits="userSpaceOnUse" x="51" y="67" width="53" height="6">
<g id="f19a771cfb">
<path id="Vector_7" d="M51.5278 67.6978H103.471V72.0394H51.5278V67.6978Z" fill="white"/>
</g>
</mask>
<g mask="url(#mask2_387_2065)">
<g id="Group_3">
<path id="Vector_8" d="M101.317 67.7007H91.1481C90.654 68.7163 89.7482 70.3341 88.3274 72.01H101.317C102.507 72.01 103.471 71.0445 103.471 69.8545C103.471 68.6646 102.507 67.7007 101.317 67.7007ZM72.9421 72.01H53.6817C52.4917 72.01 51.5278 71.0445 51.5278 69.8545C51.5278 68.6646 52.4917 67.7007 53.6817 67.7007H68.5439C69.6951 68.1608 70.8415 68.7776 71.518 69.5688C72.1218 70.2759 72.6224 71.1252 72.9421 72.01Z" fill="#FFAF2B"/>
</g>
</g>
</g>
<g id="Group_4">
<g id="Group_5">
<g id="Group_6">
<path id="Vector_9" d="M40.2925 108.478H43.1035V103.462L46.8412 108.478H49.1452V98.6421H46.3488V103.63L42.611 98.6421H40.2925V108.478Z" fill="#40B93C"/>
</g>
</g>
</g>
<g id="Group_7">
<g id="Group_8">
<g id="Group_9">
<path id="Vector_10" d="M54.0917 108.689C55.0895 108.689 55.9468 108.338 56.4942 107.719L56.7751 108.478H58.7013V101.044H56.0017V105.036C56.0017 105.948 55.5529 106.455 54.8215 106.455C54.1191 106.455 53.6977 105.992 53.6977 105.12V101.044H50.9998V105.401C50.9998 107.411 52.1945 108.689 54.0917 108.689Z" fill="#40B93C"/>
</g>
</g>
</g>
<g id="Group_10">
<g id="Group_11">
<g id="Group_12">
<path id="Vector_11" d="M64.3769 108.478H65.8817V106.201H65.1083C64.322 106.201 63.9555 105.849 63.9555 105.078V103.166H65.7832V101.044H63.9555V99.0908H61.8613L61.7209 100.061C61.6095 100.833 61.398 101.044 60.5551 101.044H59.8802V103.166H61.2575V105.598C61.2575 107.48 62.3393 108.478 64.3769 108.478Z" fill="#40B93C"/>
</g>
</g>
</g>
<g id="Group_13">
<g id="Group_14">
<g id="Group_15">
<path id="Vector_12" d="M67.37 108.478H70.068V105.302C70.068 104.038 70.6169 103.461 71.8246 103.461H72.682V101.044H71.8101C70.7703 101.044 70.1099 101.325 69.6466 101.971L69.3091 101.044H67.37V108.478Z" fill="#40B93C"/>
</g>
</g>
</g>
<g id="Group_16">
<g id="Group_17">
<g id="Group_18">
<path id="Vector_13" d="M74.0586 108.478H76.7566V101.045H74.0586V108.478ZM73.7922 98.5016C73.7922 99.4284 74.4671 100.074 75.4084 100.074C76.3497 100.074 77.0246 99.4284 77.0246 98.5016C77.0246 97.5732 76.3497 96.9419 75.4084 96.9419C74.4671 96.9419 73.7922 97.5732 73.7922 98.5016Z" fill="#40B93C"/>
</g>
</g>
</g>
<g id="Group_19">
<g id="Group_20">
<g id="Group_21">
<path id="Vector_14" d="M81.9839 108.478H87.0295C89.0235 108.478 90.4152 107.354 90.4152 105.738C90.4152 104.698 89.8534 103.856 88.9266 103.447C89.6838 103.011 90.1198 102.225 90.1198 101.284C90.1198 99.6674 88.8281 98.6421 86.776 98.6421H81.9839V108.478ZM84.7658 106.369V104.529H86.4805C87.1554 104.529 87.5348 104.866 87.5348 105.443C87.5348 106.034 87.1554 106.369 86.4805 106.369H84.7658ZM84.7658 102.506V100.735H86.2415C86.9019 100.735 87.2684 101.059 87.2684 101.621C87.2684 102.197 86.9019 102.506 86.2415 102.506H84.7658Z" fill="#40B93C"/>
</g>
</g>
</g>
<g id="Group_22">
<g id="Group_23">
<g id="Group_24">
<path id="Vector_15" d="M91.9333 111.289H93.0006C94.9542 111.289 95.6986 110.811 96.3444 109.195L99.6333 101.044H96.7383L95.994 103.25L95.4176 104.979L94.7298 103.25L93.8725 101.044H90.8936L94.1243 108.224C93.9144 108.83 93.6044 109.025 92.8456 109.025H91.9333V111.289Z" fill="#40B93C"/>
</g>
</g>
</g>
<g id="Group_25">
<g id="Group_26">
<g id="Group_27">
<path id="Vector_16" d="M104.424 108.478H105.929V106.201H105.156C104.369 106.201 104.003 105.849 104.003 105.078V103.166H105.831V101.044H104.003V99.0908H101.909L101.768 100.061C101.657 100.833 101.445 101.044 100.603 101.044H99.9276V103.166H101.305V105.598C101.305 107.48 102.387 108.478 104.424 108.478Z" fill="#40B93C"/>
</g>
</g>
</g>
<g id="Group_28">
<g id="Group_29">
<g id="Group_30">
<path id="Vector_17" d="M111.113 108.69C113.038 108.69 114.514 107.734 115.174 106.076H112.562C112.266 106.426 111.746 106.652 111.17 106.652C110.411 106.652 109.778 106.243 109.581 105.428H115.314C115.455 102.661 113.784 100.833 111.128 100.833C108.64 100.833 106.912 102.436 106.912 104.755C106.912 107.086 108.627 108.69 111.113 108.69ZM109.596 103.967C109.82 103.25 110.411 102.858 111.155 102.858C111.971 102.858 112.518 103.279 112.744 103.967H109.596Z" fill="#40B93C"/>
</g>
</g>
</g>
</g>
</svg>
